HIERARCHY
ROOT Hips
{
 OFFSET 0.000000 0.000000 0.000000
 CHANNELS 6 Xposition Yposition Zposition Yrotation Xrotation Zrotation
 JOINT Chest
 {
  OFFSET 0.000000 9.118891 -0.003343
  CHANNELS 3 Yrotation Xrotation Zrotation
  JOINT Chest2
  {
   OFFSET 0.000000 9.974827 0.006072
   CHANNELS 3 Yrotation Xrotation Zrotation
   JOINT Chest3
   {
    OFFSET 0.000000 9.012192 0.000000
    CHANNELS 3 Yrotation Xrotation Zrotation
    JOINT Chest4
    {
     OFFSET 0.000000 9.012192 0.000000
     CHANNELS 3 Yrotation Xrotation Zrotation
     JOINT Neck
     {
      OFFSET 0.000000 12.705587 0.000000
      CHANNELS 3 Yrotation Xrotation Zrotation
      JOINT Head
      {
       OFFSET 0.000000 8.391369 0.014439
       CHANNELS 3 Yrotation Xrotation Zrotation
       End Site
       {
        OFFSET 0.000000 16.040357 0.007542
       }
      }
     }
     JOINT RightCollar
     {
      OFFSET -2.776401 7.093167 0.000000
      CHANNELS 3 Yrotation Xrotation Zrotation
      JOINT RightShoulder
      {
       OFFSET -13.069743 0.000000 0.000000
       CHANNELS 3 Yrotation Xrotation Zrotation
       JOINT RightElbow
       {
        OFFSET 0.000000 -28.086887 0.000000
        CHANNELS 3 Yrotation Xrotation Zrotation
        JOINT RightWrist
        {
         OFFSET 0.000000 -22.938724 0.000000
         CHANNELS 3 Yrotation Xrotation Zrotation
         End Site
         {
          OFFSET 0.000000 -17.079533 0.000000
         }
        }
       }
      }
     }
     JOINT LeftCollar
     {
      OFFSET 2.776401 7.093167 0.000000
      CHANNELS 3 Yrotation Xrotation Zrotation
      JOINT LeftShoulder
      {
       OFFSET 13.069743 0.000000 0.000000
       CHANNELS 3 Yrotation Xrotation Zrotation
       JOINT LeftElbow
       {
        OFFSET 0.000000 -28.086887 0.000000
        CHANNELS 3 Yrotation Xrotation Zrotation
        JOINT LeftWrist
        {
         OFFSET 0.000000 -22.938724 0.000000
         CHANNELS 3 Yrotation Xrotation Zrotation
         End Site
         {
          OFFSET 0.000000 -17.079533 0.000000
         }
        }
       }
      }
     }
    }
   }
  }
 }
 JOINT RightHip
 {
  OFFSET -7.432142 0.016379 0.001671
  CHANNELS 3 Yrotation Xrotation Zrotation
  JOINT RightKnee
  {
   OFFSET 0.000000 -38.693556 -0.001581
   CHANNELS 3 Yrotation Xrotation Zrotation
   JOINT RightAnkle
   {
    OFFSET 0.000000 -37.632671 -0.002674
    CHANNELS 3 Yrotation Xrotation Zrotation
    JOINT RightToe
    {
     OFFSET 0.000000 -6.431303 14.619699
     CHANNELS 3 Yrotation Xrotation Zrotation
     End Site
     {
      OFFSET 0.000000 -1.406368 6.076152
     }
    }
   }
  }
 }
 JOINT LeftHip
 {
  OFFSET 7.432142 0.016379 0.001671
  CHANNELS 3 Yrotation Xrotation Zrotation
  JOINT LeftKnee
  {
   OFFSET 0.000000 -38.693556 -0.001581
   CHANNELS 3 Yrotation Xrotation Zrotation
   JOINT LeftAnkle
   {
    OFFSET 0.000000 -37.632671 -0.002674
    CHANNELS 3 Yrotation Xrotation Zrotation
    JOINT LeftToe
    {
     OFFSET 0.000000 -6.431303 14.619699
     CHANNELS 3 Yrotation Xrotation Zrotation
     End Site
     {
      OFFSET 0.000000 -1.406368 6.076152
     }
    }
   }
  }
 }
}
MOTION
Frames: 15
Frame Time: 0.008333
39.727769 50.526868 261.447979 -63.152994 -38.708130 0.440299 1.702170 10.461232 -3.484277 0.967980 4.644412 -0.903271 0.967980 4.644412 -0.903271 0.732466 3.481899 -0.684454 -1.384200 23.210203 4.565746 -2.562038 -0.921127 5.282109 -6.403944 11.547412 17.536234 27.682878 -17.776858 -35.797739 55.699070 -48.828648 -18.458907 14.836045 -2.058794 -1.671171 -6.852755 11.285661 -6.357874 -7.281734 -29.089793 15.474169 -70.664094 -39.836337 26.707934 -17.481150 0.539103 -17.623176 6.270004 -44.063757 -19.149971 65.369711 83.945335 61.671797 -3.431054 -1.046641 7.915756 0.564733 -1.177318 0.228417 11.416109 -43.053285 6.122388 40.125188 80.974840 33.524048 -2.760146 -0.690495 5.625503 0.756904 1.033030 0.307321
39.725508 50.525214 261.447025 -63.178191 -38.706076 0.460731 1.707407 10.468566 -3.484344 0.968951 4.649034 -0.903355 0.968951 4.649034 -0.903355 0.733201 3.485364 -0.684531 -1.404362 23.204714 4.481956 -2.564031 -0.932438 5.194380 -6.426880 11.536357 17.541834 27.653029 -17.781891 -35.782894 55.713925 -48.884282 -18.477371 14.827773 -2.074002 -1.683367 -6.865059 11.277383 -6.354969 -7.296216 -29.091100 15.500549 -70.630920 -39.843692 26.714789 -17.490000 0.541642 -17.651144 6.273714 -44.074805 -19.146505 65.393070 83.952709 61.685884 -3.426241 -1.044729 7.911113 0.570879 -1.179870 0.230903 11.428672 -43.049446 6.127024 40.117594 80.975350 33.508239 -2.761961 -0.706387 5.622922 0.760768 1.044180 0.314181
39.723237 50.525036 261.446680 -63.198787 -38.704892 0.476832 1.715761 10.477523 -3.485789 0.970342 4.653948 -0.903930 0.970342 4.653948 -0.903930 0.734255 3.489046 -0.684980 -1.429263 23.195381 4.402396 -2.572176 -0.947819 5.112464 -6.444989 11.520361 17.549048 27.614422 -17.788882 -35.769431 55.734480 -48.937378 -18.497396 14.812371 -2.085407 -1.692510 -6.881585 11.267568 -6.343318 -7.299892 -29.091448 15.511635 -70.597564 -39.858171 26.714739 -17.508583 0.545139 -17.673515 6.271527 -44.081305 -19.143854 65.374423 83.959554 61.660058 -3.415876 -1.044155 7.905921 0.572544 -1.180942 0.232476 11.444336 -43.044887 6.128899 40.107412 80.974220 33.493985 -2.763390 -0.717993 5.623542 0.762715 1.052230 0.318469
39.719931 50.525217 261.446978 -63.217911 -38.704640 0.490630 1.723380 10.492127 -3.487094 0.971950 4.659300 -0.904904 0.971950 4.659300 -0.904904 0.735475 3.493056 -0.685730 -1.453305 23.184003 4.325001 -2.579886 -0.965475 5.032750 -6.462958 11.497258 17.560274 27.587810 -17.784763 -35.754208 55.744404 -48.979417 -18.523667 14.800571 -2.089332 -1.682952 -6.893201 11.255970 -6.329144 -7.306132 -29.097234 15.522442 -70.563193 -39.863824 26.718871 -17.514971 0.540472 -17.694097 6.270670 -44.088515 -19.141308 65.421880 83.963751 61.696884 -3.398801 -1.041971 7.910254 0.564788 -1.187339 0.229620 11.452663 -43.041595 6.135440 40.122014 80.975987 33.503358 -2.766785 -0.723292 5.620374 0.768951 1.051794 0.323840
39.717028 50.525685 261.447361 -63.233511 -38.702014 0.501968 1.733166 10.498670 -3.490980 0.975505 4.663037 -0.906648 0.975505 4.663037 -0.906648 0.738158 3.495851 -0.687070 -1.480239 23.174380 4.250123 -2.591350 -0.980689 4.956592 -6.481220 11.480316 17.575052 27.562161 -17.775458 -35.739783 55.742645 -49.020935 -18.535437 14.789696 -2.084182 -1.694125 -6.907501 11.253328 -6.307405 -7.310580 -29.103121 15.527805 -70.531831 -39.878999 26.719841 -17.522220 0.546426 -17.713303 6.265604 -44.093999 -19.136643 65.404676 83.971620 61.670883 -3.387736 -1.046003 7.911601 0.563012 -1.186250 0.228624 11.471041 -43.038842 6.137874 40.100399 80.977557 33.478462 -2.770610 -0.733041 5.626507 0.770799 1.056444 0.326067
39.714861 50.526398 261.448039 -63.233319 -38.695486 0.503880 1.736157 10.503826 -3.493475 0.979547 4.667230 -0.907073 0.979547 4.667230 -0.907073 0.741196 3.498990 -0.687425 -1.506856 23.161577 4.180377 -2.603667 -0.999340 4.886005 -6.502723 11.469989 17.580778 27.544458 -17.772025 -35.729220 55.737835 -49.066313 -18.541112 14.779653 -2.062314 -1.706431 -6.922191 11.258228 -6.292490 -7.312858 -29.118613 15.536679 -70.499389 -39.894947 26.715772 -17.531711 0.542927 -17.728029 6.252806 -44.099442 -19.136080 65.433433 83.966978 61.694672 -3.387144 -1.056493 7.906481 0.568684 -1.181358 0.232852 11.472914 -43.043373 6.137961 40.153684 80.971178 33.527367 -2.782647 -0.733214 5.630891 0.769691 1.055522 0.327015
39.711288 50.528656 261.448805 -63.247889 -38.699851 0.510597 1.745558 10.509688 -3.492864 0.981488 4.668903 -0.907563 0.981488 4.668903 -0.907563 0.742657 3.500241 -0.687810 -1.530278 23.154877 4.110567 -2.612516 -1.010755 4.814721 -6.507516 11.467882 17.582435 27.530914 -17.756559 -35.717358 55.712971 -49.100736 -18.545463 14.777728 -2.048247 -1.712303 -6.923696 11.274698 -6.285478 -7.318876 -29.137763 15.541850 -70.465197 -39.906126 26.703413 -17.540860 0.550892 -17.730173 6.246697 -44.096223 -19.126951 65.405410 83.975055 61.662607 -3.377984 -1.059251 7.903133 0.574800 -1.182257 0.234935 11.483762 -43.031481 6.147445 40.199503 80.964701 33.566679 -2.793885 -0.748037 5.636904 0.766613 1.063204 0.328925
39.708394 50.530385 261.451873 -63.251319 -38.704501 0.518465 1.746936 10.518964 -3.497266 0.982667 4.670761 -0.907107 0.982667 4.670761 -0.907107 0.743540 3.501633 -0.687480 -1.552127 23.146926 4.040893 -2.619672 -1.023666 4.743229 -6.513558 11.464658 17.575690 27.535305 -17.736631 -35.710070 55.684626 -49.132653 -18.552172 14.773139 -2.033436 -1.710672 -6.918177 11.294450 -6.279992 -7.333349 -29.161559 15.545543 -70.437635 -39.918907 26.695366 -17.543898 0.556851 -17.738297 6.242822 -44.095272 -19.130327 65.493638 83.975582 61.746622 -3.385404 -1.057741 7.896197 0.590456 -1.190572 0.241561 11.485873 -43.019848 6.143949 40.248652 80.959198 33.608614 -2.793226 -0.758329 5.637950 0.759865 1.066781 0.331024
39.706756 50.531387 261.453762 -63.258039 -38.702741 0.519372 1.750502 10.518961 -3.495642 0.982016 4.672134 -0.906907 0.982016 4.672134 -0.906907 0.743052 3.502664 -0.687327 -1.569843 23.138276 3.975004 -2.623224 -1.037294 4.674933 -6.499837 11.464682 17.575311 27.534002 -17.718684 -35.714793 55.647152 -49.166164 -18.547421 14.778284 -2.013696 -1.721383 -6.901985 11.306692 -6.277412 -7.344894 -29.180179 15.544041 -70.421461 -39.918606 26.689345 -17.545155 0.561370 -17.742335 6.233534 -44.099950 -19.124384 65.500216 83.978112 61.751634 -3.385868 -1.055961 7.890834 0.600998 -1.194666 0.245096 11.496809 -43.019409 6.145099 40.274646 80.957815 33.632206 -2.786657 -0.768249 5.646554 0.747427 1.069852 0.329565
39.705152 50.532911 261.457597 -63.256879 -38.704490 0.521431 1.751093 10.532109 -3.496580 0.983273 4.675927 -0.905432 0.983273 4.675927 -0.905432 0.743988 3.505510 -0.686236 -1.595254 23.127397 3.908978 -2.635106 -1.053246 4.608343 -6.486881 11.453167 17.572578 27.530202 -17.702288 -35.723673 55.606449 -49.194562 -18.535246 14.787901 -1.988199 -1.743941 -6.890239 11.303132 -6.275117 -7.363075 -29.195394 15.536600 -70.407604 -39.928812 26.692121 -17.548760 0.576173 -17.751497 6.227265 -44.099408 -19.127442 65.564207 83.976541 61.809191 -3.385287 -1.058347 7.894556 0.607795 -1.198967 0.247010 11.497356 -43.014676 6.144466 40.318401 80.957089 33.666910 -2.788301 -0.773284 5.653408 0.738900 1.068680 0.329190
39.704395 50.532919 261.460567 -63.260293 -38.699234 0.516978 1.763164 10.540945 -3.489378 0.984969 4.680244 -0.905155 0.984969 4.680244 -0.905155 0.745263 3.508745 -0.686048 -1.616064 23.115610 3.850513 -2.643769 -1.069971 4.548972 -6.479615 11.431789 17.571539 27.528448 -17.681748 -35.726976 55.570249 -49.211743 -18.532769 14.791049 -1.967124 -1.754242 -6.878794 11.298422 -6.264938 -7.372099 -29.218776 15.516659 -70.417147 -39.922736 26.702773 -17.545835 0.581347 -17.756240 6.222361 -44.108548 -19.123662 65.583780 83.977780 61.827841 -3.378634 -1.049228 7.898757 0.614497 -1.209540 0.247285 11.507963 -43.022433 6.148708 40.341347 80.961974 33.689483 -2.792230 -0.778228 5.658256 0.736677 1.066808 0.331653
39.703772 50.532939 261.462829 -63.254869 -38.690120 0.503530 1.785547 10.551730 -3.482505 0.990376 4.685830 -0.904627 0.990376 4.685830 -0.904627 0.749319 3.512928 -0.685702 -1.639963 23.104890 3.805835 -2.659080 -1.084459 4.505519 -6.492560 11.409135 17.583083 27.536761 -17.657492 -35.736260 55.535187 -49.227941 -18.532565 14.798196 -1.947710 -1.771423 -6.886828 11.288070 -6.248129 -7.378553 -29.240314 15.499238 -70.439893 -39.921786 26.719473 -17.540910 0.590982 -17.766066 6.213780 -44.115647 -19.116881 65.544061 83.980780 61.788802 -3.364732 -1.047049 7.908471 0.617609 -1.214479 0.246709 11.501735 -43.031763 6.160890 40.371800 80.962141 33.714841 -2.795199 -0.792111 5.662560 0.735100 1.074178 0.332907
39.703887 50.533647 261.466036 -63.246188 -38.683077 0.493175 1.806225 10.564987 -3.477711 0.996320 4.692021 -0.903922 0.996320 4.692021 -0.903922 0.753777 3.517563 -0.685229 -1.664309 23.088609 3.764375 -2.675605 -1.105368 4.465637 -6.508396 11.377396 17.590751 27.544121 -17.627320 -35.746440 55.498340 -49.244997 -18.535979 14.799769 -1.935216 -1.775794 -6.897301 11.271056 -6.235750 -7.389534 -29.261611 15.481390 -70.455208 -39.911905 26.732850 -17.544788 0.585741 -17.774005 6.208064 -44.119787 -19.115312 65.501054 83.987412 61.746576 -3.361092 -1.046555 7.916678 0.624301 -1.217972 0.248791 11.507373 -43.036588 6.159817 40.349135 80.963479 33.692504 -2.792486 -0.805265 5.667851 0.731000 1.081829 0.334428
39.703169 50.534384 261.467282 -63.237860 -38.676443 0.474399 1.837748 10.577496 -3.466671 1.004180 4.697287 -0.903472 1.004180 4.697287 -0.903472 0.759672 3.521502 -0.684960 -1.694718 23.078284 3.731588 -2.700827 -1.118395 4.436829 -6.537568 11.354343 17.601842 27.566782 -17.588718 -35.756143 55.451770 -49.259766 -18.544992 14.807143 -1.918848 -1.788592 -6.907895 11.261674 -6.213304 -7.401323 -29.280889 15.454067 -70.489183 -39.901869 26.765852 -17.543381 0.594805 -17.802318 6.196954 -44.124263 -19.097412 65.470483 83.990246 61.715920 -3.362647 -1.042924 7.923674 0.632165 -1.223646 0.253766 11.500285 -43.043575 6.170460 40.378317 80.960530 33.727441 -2.801779 -0.820587 5.664824 0.733095 1.092567 0.335373
39.702319 50.535686 261.470163 -63.228440 -38.677588 0.460697 1.864357 10.591243 -3.462458 1.010733 4.700919 -0.902896 1.010733 4.700919 -0.902896 0.764585 3.524218 -0.684584 -1.713903 23.069606 3.707765 -2.715977 -1.129369 4.415185 -6.550907 11.336747 17.605398 27.574640 -17.555145 -35.760915 55.403962 -49.270018 -18.545897 14.812963 -1.905543 -1.802413 -6.911292 11.261086 -6.193543 -7.410326 -29.300023 15.433283 -70.526025 -39.903926 26.789192 -17.544986 0.597206 -17.824543 6.187560 -44.123490 -19.092013 65.473518 83.993479 61.719768 -3.354853 -1.036159 7.926931 0.636234 -1.233720 0.258706 11.513627 -43.041699 6.165841 40.352297 80.962172 33.712987 -2.797055 -0.833357 5.669041 0.730085 1.099503 0.335574
